<svg width="612" height="612" xmlns="http://www.w3.org/2000/svg">
 <title>Bootstrap</title>

 <g>
  <title>background</title>
  <rect fill="none" id="canvas_background" height="402" width="582" y="-1" x="-1"/>
 </g>
 <g>
  <title>Layer 1</title>
  <path id="svg_1" d="m611,510c0,56.1 -45.9,102 -102,102l-408,0c-56.1,0 -102,-45.9 -102,-102l0,-408c0,-56.1 45.9,-102 102,-102l408,0c56.1,0 102,45.9 102,102l0,408z" fill="#563D7C"/>
  <path stroke="null" id="svg_4" d="m84.5,306.000002l0,0c0,-120.950359 99.168935,-219.000018 221.499991,-219.000018l0,0c58.745425,0 115.084839,23.073136 156.624115,64.143606c41.53932,41.070484 64.875876,96.773977 64.875876,154.856412l0,0c0,120.950344 -99.168935,219.000018 -221.499991,219.000018l0,0c-122.331041,0 -221.499991,-98.049674 -221.499991,-219.000018zm110.749995,0l0,0c0,60.475165 49.584497,109.500009 110.749995,109.500009c61.165543,0 110.749995,-49.024844 110.749995,-109.500009c0,-60.475165 -49.584482,-109.500009 -110.749995,-109.500009l0,0c-61.165498,0 -110.749995,49.024859 -110.749995,109.500009z" fill-opacity="null" stroke-opacity="null" stroke-width="null" fill="#FFF"/>
 </g>
</svg>